<svg width="14" height="14" viewBox="0 0 14 14" fill="none" xmlns="http://www.w3.org/2000/svg">
<g clip-path="url(#clip0)">
<path d="M13.9142 4.32354L11.4756 0.279105C11.3567 0.130422 11.1783 0.0114594 10.9701 0.0114594H3.02995C2.82177 0.0114594 2.64334 0.100675 2.5244 0.279105L0.0858143 4.35329C-0.0331486 4.56147 -0.0331486 4.82912 0.115562 5.00755L6.50931 13.7507C6.62827 13.8993 6.8067 13.9886 6.98514 13.9886C7.16357 13.9886 7.342 13.8993 7.46096 13.7507L13.8845 4.9778C14.0331 4.76962 14.0331 4.53172 13.9142 4.32354ZM6.98514 12.4124L1.27536 4.62094L3.35706 1.17129H10.6132L12.6949 4.62094L6.98514 12.4124Z" fill="#E84A5F"/>
</g>
<defs>
<clipPath id="clip0">
<rect width="14" height="14" fill="white"/>
</clipPath>
</defs>
</svg>
