<svg width="52" height="52" viewBox="0 0 52 52" fill="none" xmlns="http://www.w3.org/2000/svg">
<g clip-path="url(#clip0)">
<path d="M35.4812 33.3177C35.2915 33.129 35.0308 33.0204 34.7639 33.0204C34.4971 33.0204 34.2353 33.129 34.0456 33.3177C33.857 33.5064 33.7493 33.768 33.7493 34.035C33.7493 34.3018 33.857 34.5635 34.0456 34.7522C34.2353 34.941 34.497 35.0496 34.7639 35.0496C35.0307 35.0496 35.2914 34.9411 35.4812 34.7522C35.6699 34.5636 35.7785 34.3019 35.7785 34.035C35.7785 33.7681 35.6701 33.5065 35.4812 33.3177Z" fill="#4F406F"/>
<path d="M51.8132 43.632C51.5253 42.8184 50.9378 42.1656 50.1589 41.7939L50.159 41.794L45.9968 39.8075L46.1265 39.4805C46.3224 38.9872 46.1047 38.4264 45.6275 38.1941L38.5977 34.7727C38.0937 34.5272 37.4867 34.7371 37.2415 35.2409C36.9964 35.7447 37.2059 36.3518 37.7097 36.597L43.8933 39.6067L41.9883 43.9831L22.3115 34.8652C22.1778 34.8033 22.0323 34.7711 21.8849 34.7711H12.2276C12.1308 34.7711 12.0376 34.7856 11.9489 34.8109L11.167 32.035C11.0152 31.4958 10.4552 31.181 9.91545 31.3335C9.37615 31.4853 9.06202 32.0458 9.21395 32.585L10.8878 38.5272H5.67003L4.26248 28.855C4.14314 28.0353 4.38567 27.2058 4.92761 26.5792C5.46955 25.9528 6.25554 25.5934 7.08398 25.5934C7.52832 25.5934 7.97286 25.6993 8.36946 25.8997L15.433 29.4678C15.4391 29.4708 15.4444 29.4727 15.4502 29.4754C15.5845 29.5401 15.7339 29.5767 15.8906 29.5767L23.2848 29.5759L30.5949 33.1339C30.7379 33.2035 30.8891 33.2364 31.0381 33.2364C31.4141 33.2364 31.7755 33.0265 31.951 32.6657C32.1961 32.1618 31.9866 31.5548 31.4827 31.3095L25.0699 28.1882L27.3993 25.0966H38.7942C39.4616 25.0966 40.1132 24.9091 40.6742 24.5573L46.5442 20.9161C46.7833 20.7677 46.9478 20.527 47.0026 20.2532C47.4684 20.1207 47.9078 19.872 48.2739 19.5061L49.075 18.705C50.2221 17.5578 50.2221 15.6912 49.075 14.5441L47.7296 13.1987C46.5825 12.0516 44.7157 12.0514 43.5686 13.1987L42.7675 13.9998C42.3996 14.3677 42.1503 14.8099 42.0183 15.2785C41.9604 15.2956 41.9033 15.3176 41.8479 15.3455L36.4084 18.0977L27.2355 16.8146C27.9009 16.1785 28.3973 15.3805 28.6744 14.4762L28.911 13.7047C29.7922 10.8303 28.1705 7.77502 25.2962 6.89386C23.9038 6.46699 22.4282 6.60796 21.1421 7.29077C19.8556 7.97347 18.9122 9.11635 18.4853 10.5087L18.2487 11.2801C17.8267 12.6569 17.9801 14.0746 18.5691 15.2756L10.8179 14.1273L13.0679 12.2282C13.2445 12.0792 13.3622 11.8754 13.407 11.6521C13.8364 11.5136 14.2403 11.2752 14.5806 10.9347L15.3817 10.1336C16.5289 8.98645 16.5289 7.11984 15.3817 5.97259L14.0363 4.62729C12.8892 3.48014 11.0226 3.48034 9.87533 4.62729L9.0742 5.42841C8.70706 5.79556 8.45802 6.23665 8.32599 6.70394C8.14135 6.73491 7.96331 6.81708 7.81462 6.95094L2.22239 11.9929C1.22769 12.8897 0.755523 14.2154 0.959258 15.5391C1.16309 16.8627 2.01205 17.9849 3.2304 18.5411L13.5624 23.2577L14.3874 26.6663L9.28424 24.0886C8.60539 23.7457 7.84459 23.5643 7.08388 23.5643C5.66587 23.5643 4.32067 24.1795 3.393 25.2518C2.46533 26.3242 2.05045 27.744 2.25459 29.1472L3.78848 39.6879C3.81824 39.8922 3.90823 40.0742 4.03792 40.2187C1.71915 40.8127 0 42.9197 0 45.421C0 45.9812 0.454289 46.4355 1.01451 46.4355H20.9774C21.5376 46.4355 21.9919 45.9812 21.9919 45.421C21.9919 44.8608 21.5376 44.4065 20.9774 44.4065H12.079C12.1268 44.2079 12.1528 44.001 12.1528 43.7879V40.5565H12.2279C12.5457 40.5565 12.845 40.4077 13.0369 40.1544C13.2286 39.9011 13.2907 39.5726 13.2044 39.2668L12.5097 36.8003H21.6616L42.2517 46.3414C42.3868 46.4039 42.5324 46.4354 42.6783 46.4354C42.8058 46.4354 42.9334 46.4114 43.0542 46.3632C43.1994 46.3053 43.3267 46.2145 43.4293 46.1011L47.2361 47.9179C47.6838 48.1316 48.1568 48.2329 48.6228 48.2329C49.8298 48.2329 50.99 47.554 51.5437 46.394L51.6834 46.1014C52.0549 45.3226 52.1012 44.4456 51.8132 43.632ZM44.2022 15.4348L45.0034 14.6336C45.1813 14.4556 45.4152 14.3666 45.6489 14.3666C45.8829 14.3666 46.1166 14.4556 46.2945 14.6336L47.6399 15.979C47.9959 16.335 47.9959 16.9143 47.6399 17.2704L46.8388 18.0714C46.6664 18.2439 46.437 18.3388 46.1932 18.3388C45.9493 18.3388 45.72 18.2439 45.5476 18.0714L44.2022 16.7261C43.8462 16.3701 43.8462 15.7907 44.2022 15.4348ZM36.442 20.1515C36.6471 20.1805 36.856 20.1455 37.0407 20.0521L42.0988 17.4927L44.4014 19.8574L39.5998 22.8358C39.3581 22.9875 39.0793 23.0678 38.7938 23.0678H26.8931C26.5745 23.0678 26.2744 23.2174 26.0829 23.4718L23.8733 26.4044L22.6375 22.6677L25.2571 18.5872L36.442 20.1515ZM21.8177 20.1888L21.0102 17.7476C21.2805 17.8835 21.5648 17.9998 21.8635 18.0913C22.2449 18.2083 22.6327 18.282 23.021 18.3143L21.8177 20.1888ZM20.1886 11.8751L20.4251 11.1036C20.6932 10.2294 21.2855 9.51194 22.0932 9.08324C22.5946 8.81705 23.1418 8.68207 23.6937 8.68207C24.0308 8.68207 24.3698 8.73245 24.7013 8.83401C26.5059 9.38722 27.524 11.3055 26.9708 13.1101L26.7344 13.8816C26.4664 14.7558 25.8741 15.4733 25.0663 15.9019C24.2587 16.3306 23.3327 16.4193 22.4581 16.1511C20.6535 15.5982 19.6355 13.6799 20.1886 11.8751ZM10.509 6.8637L11.3101 6.06257C11.488 5.88453 11.7219 5.79556 11.9556 5.79556C12.1896 5.79556 12.4233 5.88453 12.6013 6.06257L13.9467 7.40787C14.3027 7.76384 14.3027 8.34316 13.9467 8.69924L13.1455 9.50036C12.7897 9.85644 12.2101 9.85644 11.8543 9.50036L10.5089 8.15506C10.1529 7.79899 10.1529 7.21967 10.509 6.8637ZM13.3722 18.1607C12.8276 18.2925 12.493 18.8409 12.6248 19.3854L12.9553 20.7503L4.07296 16.6955C3.46958 16.4201 3.06577 15.8861 2.96481 15.2306C2.86386 14.5751 3.08862 13.9442 3.5812 13.5002L8.47377 9.08924L10.8964 11.4062L7.79187 14.0267C7.48709 14.2839 7.36135 14.6958 7.47033 15.0794C7.57941 15.463 7.90309 15.7472 8.29745 15.8056L18.7426 17.353L22.1142 27.5471L16.6886 27.5476L14.5972 18.9079C14.4651 18.3635 13.9174 18.029 13.3722 18.1607ZM10.1236 43.788C10.1235 44.1289 9.84618 44.4066 9.50503 44.4066H2.18644C2.61696 43.0593 3.88091 42.0808 5.3693 42.0808C5.92952 42.0808 6.38381 41.6265 6.38381 41.0663C6.38381 40.8803 6.33293 40.7066 6.24548 40.5567H10.1234V43.788H10.1236ZM49.8521 45.2273L49.7124 45.5198C49.4269 46.1179 48.7082 46.3721 48.1101 46.0868L44.2385 44.2391L44.8494 42.6996L45.3125 41.7293L49.2849 43.6253L49.285 43.6254C49.5747 43.7636 49.7932 44.0064 49.9003 44.309C50.0074 44.6116 49.9903 44.9378 49.8521 45.2273Z" fill="#4F406F"/>
<path d="M25.5499 44.7041C25.3613 44.5144 25.0996 44.4068 24.8328 44.4068C24.566 44.4068 24.3041 44.5144 24.1154 44.7041C23.9267 44.8928 23.8181 45.1536 23.8181 45.4214C23.8181 45.6882 23.9266 45.9499 24.1154 46.1387C24.3051 46.3273 24.5658 46.436 24.8328 46.436C25.0996 46.436 25.3613 46.3274 25.5499 46.1387C25.7386 45.95 25.8473 45.6883 25.8473 45.4214C25.8473 45.1535 25.7387 44.8928 25.5499 44.7041Z" fill="#4F406F"/>
</g>
<defs>
<clipPath id="clip0">
<rect width="52" height="52" fill="white"/>
</clipPath>
</defs>
</svg>
