<svg width="51" height="51" viewBox="0 0 51 51" fill="none" xmlns="http://www.w3.org/2000/svg">
<path d="M25.5001 25.2203C24.6061 25.2203 23.8812 25.9452 23.8812 26.8392V49.3811C23.8812 50.2751 24.6061 51 25.5001 51C26.3941 51 27.119 50.2751 27.119 49.3811V26.8392C27.119 25.9452 26.3941 25.2203 25.5001 25.2203Z" fill="#FFB74B"/>
<path d="M25.5001 21.9825C27.8618 21.9825 29.8341 23.6773 30.2674 25.9142H37.4819C37.2548 14.1881 32.415 5.059 26.509 0.352827C25.9187 -0.117568 25.0815 -0.117568 24.4912 0.352827C18.5886 5.05637 13.7453 14.1914 13.5183 25.9142H20.7328C21.1661 23.6773 23.1384 21.9825 25.5001 21.9825ZM22.9352 13.1588C24.3518 11.7423 26.6485 11.7423 28.0651 13.1588C29.4816 14.5754 29.4816 16.872 28.0651 18.2887C26.6485 19.7052 24.3518 19.7052 22.9352 18.2887C21.5187 16.8721 21.5187 14.5754 22.9352 13.1588Z" fill="#FFB74B"/>
<path d="M30.3568 29.1521V40.6597H33.9305C34.6271 40.6597 35.2457 40.214 35.4661 39.5532C36.5664 36.2559 37.2216 32.7667 37.423 29.152H30.3568V29.1521Z" fill="#FFB74B"/>
<path d="M20.6434 29.1521H13.5772C13.7786 32.7668 14.4338 36.2559 15.5341 39.5533C15.7546 40.2141 16.3731 40.6598 17.0697 40.6598H20.6434V29.1521Z" fill="#FFB74B"/>
<path d="M17.0697 43.8975C14.9767 43.8975 13.1252 42.5635 12.4627 40.578C11.2744 37.0167 10.2389 28.0337 10.2389 28.0337C6.20448 31.2046 4.95064 36.7979 7.28268 41.4006L10.9419 48.623C11.3823 49.4922 12.4873 49.7787 13.2945 49.2313C15.16 47.9667 16.69 46.1485 17.5964 43.8975H17.0697Z" fill="#FFB74B"/>
<path d="M40.7614 28.0338C40.7614 28.0338 39.7259 37.0168 38.5376 40.5781C37.8751 42.5636 36.0236 43.8976 33.9306 43.8976H33.404C34.2827 46.0795 35.7776 47.9242 37.7059 49.2314C38.5116 49.7777 39.6171 49.4943 40.0585 48.6231L43.7177 41.4007C46.046 36.805 44.8019 31.2095 40.7614 28.0338Z" fill="#FFB74B"/>
</svg>
