<svg width="54" height="54" viewBox="0 0 54 54" fill="none" xmlns="http://www.w3.org/2000/svg">
<g clip-path="url(#clip0)">
<path d="M49.0101 33.5872C48.9014 33.1818 48.6363 32.8363 48.2729 32.6266C47.9094 32.4167 47.4776 32.3599 47.0724 32.4685L41.9931 33.8294L39.219 32.2278L42.2562 31.107C43.0758 30.8045 43.4951 29.8947 43.1926 29.0751C42.8901 28.2554 41.9807 27.8359 41.1607 28.1386L35.6553 30.1703L33.2887 28.8039V25.196L35.6553 23.8296L41.1607 25.8613C41.3413 25.9279 41.5263 25.9596 41.7081 25.9596C42.3518 25.9596 42.9568 25.5638 43.1925 24.9248C43.495 24.1052 43.0758 23.1954 42.2561 22.8929L39.2189 21.7721L41.993 20.1705L47.0723 21.5314C47.207 21.5675 47.3447 21.5853 47.4818 21.5853C47.7571 21.5853 48.0303 21.5134 48.2728 21.3733C48.6362 21.1636 48.9013 20.8181 49.01 20.4127L50.5406 14.7003C50.7668 13.8564 50.266 12.9889 49.422 12.7628L43.7097 11.2321C43.3044 11.1235 42.8725 11.1804 42.5092 11.3902C42.1458 11.6 41.8807 11.9455 41.7721 12.3508L40.411 17.4303L37.6369 19.0319L38.1849 15.8413C38.3327 14.9801 37.7545 14.1622 36.8935 14.0143C36.0315 13.8662 35.2143 14.4447 35.0666 15.3057L34.0733 21.0894L31.7067 22.4558L28.582 20.6515V17.9191L33.0942 14.1671C33.7659 13.6084 33.8577 12.611 33.299 11.9392C32.7402 11.2672 31.743 11.1756 31.0711 11.7342L28.582 13.8041V10.6009L32.3004 6.88257C32.5971 6.58589 32.7639 6.18353 32.7639 5.76397C32.7639 5.34442 32.5972 4.94205 32.3004 4.64537L28.1186 0.463429C27.5009 -0.154407 26.4991 -0.154407 25.8813 0.463429L21.6996 4.64516C21.0817 5.263 21.0817 6.26463 21.6996 6.88247L25.418 10.6008V13.8041L22.9287 11.7342C22.2569 11.1756 21.2594 11.2674 20.7008 11.9392C20.1422 12.611 20.2339 13.6084 20.9057 14.1671L25.418 17.919V20.6513L22.2933 22.4558L19.9267 21.0895L18.9334 15.3057C18.7855 14.4447 17.9681 13.8662 17.1064 14.0143C16.2453 14.1621 15.6672 14.9801 15.8149 15.8413L16.363 19.0319L13.5888 17.4303L12.2277 12.3508C12.1192 11.9455 11.8541 11.6 11.4906 11.3902C11.1273 11.1804 10.6955 11.1236 10.2902 11.2321L4.57788 12.7628C3.73392 12.9889 3.23315 13.8564 3.45927 14.7003L4.98984 20.4127C5.09836 20.8181 5.36351 21.1636 5.72696 21.3733C5.96954 21.5134 6.2427 21.5853 6.51797 21.5853C6.65498 21.5853 6.79272 21.5675 6.9274 21.5314L12.0068 20.1705L14.7809 21.7721L11.7438 22.8929C10.9241 23.1954 10.5048 24.1052 10.8074 24.9248C11.0432 25.5639 11.6482 25.9597 12.2918 25.9596C12.4737 25.9596 12.6587 25.9279 12.8392 25.8613L18.3447 23.8296L20.7113 25.196V28.8039L18.3447 30.1703L12.8392 28.1386C12.0196 27.8361 11.1099 28.2554 10.8074 29.0751C10.5049 29.8947 10.9241 30.8045 11.7438 31.107L14.7809 32.2278L12.0068 33.8294L6.9274 32.4685C6.52198 32.3597 6.0903 32.4167 5.72696 32.6266C5.36362 32.8363 5.09847 33.1818 4.98984 33.5872L3.45927 39.2996C3.23315 40.1435 3.73392 41.011 4.57788 41.2371L10.2902 42.7678C10.4249 42.8039 10.5625 42.8217 10.6996 42.8217C10.975 42.8217 11.248 42.7498 11.4906 42.6097C11.854 42.3999 12.1191 42.0544 12.2277 41.6491L13.5888 36.5696L16.363 34.968L15.8149 38.1586C15.6671 39.0198 16.2453 39.8377 17.1064 39.9856C17.197 40.0011 17.2872 40.0087 17.3761 40.0087C18.1323 40.0087 18.8011 39.4647 18.9334 38.6943L19.9267 32.9105L22.2933 31.5442L25.418 33.3488V36.0811L20.9058 39.833C20.234 40.3917 20.1422 41.3891 20.7009 42.0609C21.2596 42.7328 22.257 42.8245 22.9288 42.2659L25.418 40.196V43.3993L21.6997 47.1176C21.0818 47.7355 21.0818 48.7371 21.6997 49.355L25.8814 53.5367C26.1903 53.8456 26.5951 54 27 54C27.4048 54 27.8098 53.8455 28.1186 53.5366L32.3003 49.3548C32.597 49.0582 32.7638 48.6558 32.7638 48.2362C32.7638 47.8167 32.5971 47.4143 32.3003 47.1176L28.582 43.3992V40.196L31.0712 42.2659C31.3668 42.5116 31.7253 42.6315 32.0819 42.6315C32.5357 42.6315 32.9863 42.4373 33.2991 42.0609C33.8578 41.3891 33.766 40.3917 33.0943 39.833L28.582 36.081V33.3485L31.7068 31.5442L34.0734 32.9106L35.0667 38.6943C35.1989 39.4648 35.8677 40.0087 36.624 40.0087C36.7129 40.0087 36.8031 40.0012 36.8937 39.9856C37.7548 39.8378 38.3329 39.0198 38.1851 38.1586L37.6372 34.968L40.4112 36.5696L41.7723 41.6491C41.8809 42.0544 42.1461 42.3999 42.5094 42.6097C42.7521 42.7498 43.0251 42.8217 43.3004 42.8217C43.4375 42.8217 43.5752 42.8039 43.7099 42.7678L49.4222 41.2371C50.2662 41.011 50.767 40.1435 50.5408 39.2996L49.0101 33.5872Z" fill="#9CC5C2"/>
</g>
<defs>
<clipPath id="clip0">
<rect width="54" height="54" fill="white"/>
</clipPath>
</defs>
</svg>
