<svg width="54" height="54" viewBox="0 0 54 54" fill="none" xmlns="http://www.w3.org/2000/svg">
<g clip-path="url(#clip0)">
<path d="M49.0101 33.5872C48.9014 33.1818 48.6363 32.8363 48.2729 32.6265C47.9094 32.4167 47.4776 32.3599 47.0724 32.4684L41.9931 33.8294L39.219 32.2278L42.2562 31.107C43.0758 30.8045 43.4951 29.8947 43.1926 29.0751C42.8901 28.2554 41.9807 27.8359 41.1607 28.1386L35.6553 30.1703L33.2887 28.8039V25.196L35.6553 23.8296L41.1607 25.8612C41.3413 25.9279 41.5263 25.9595 41.7081 25.9595C42.3518 25.9595 42.9568 25.5638 43.1925 24.9248C43.495 24.1052 43.0758 23.1954 42.256 22.8929L39.2189 21.7721L41.993 20.1705L47.0723 21.5314C47.207 21.5675 47.3447 21.5853 47.4818 21.5853C47.7571 21.5853 48.0303 21.5134 48.2728 21.3733C48.6362 21.1636 48.9013 20.8181 49.01 20.4127L50.5406 14.7003C50.7667 13.8564 50.266 12.9889 49.422 12.7628L43.7097 11.2321C43.3044 11.1235 42.8725 11.1804 42.5092 11.3902C42.1458 11.6 41.8807 11.9455 41.7721 12.3508L40.411 17.4303L37.6369 19.0319L38.1848 15.8413C38.3327 14.9801 37.7545 14.1622 36.8935 14.0143C36.0315 13.8662 35.2143 14.4447 35.0666 15.3057L34.0733 21.0894L31.7066 22.4558L28.582 20.6515V17.9191L33.0942 14.1671C33.7659 13.6084 33.8577 12.611 33.299 11.9392C32.7402 11.2672 31.743 11.1756 31.0711 11.7342L28.582 13.8041V10.6009L32.3004 6.88257C32.5971 6.58588 32.7639 6.18352 32.7639 5.76397C32.7639 5.34441 32.5972 4.94205 32.3004 4.64536L28.1186 0.463423C27.5009 -0.154413 26.4991 -0.154413 25.8813 0.463423L21.6996 4.64515C21.0817 5.26299 21.0817 6.26463 21.6996 6.88246L25.418 10.6008V13.8041L22.9287 11.7342C22.2569 11.1756 21.2594 11.2674 20.7008 11.9392C20.1422 12.611 20.2339 13.6084 20.9057 14.1671L25.418 17.919V20.6513L22.2932 22.4558L19.9267 21.0895L18.9334 15.3057C18.7855 14.4447 17.9681 13.8662 17.1064 14.0143C16.2452 14.1621 15.6672 14.9801 15.8149 15.8413L16.3629 19.0319L13.5888 17.4303L12.2277 12.3508C12.1192 11.9455 11.8541 11.6 11.4906 11.3902C11.1273 11.1804 10.6955 11.1236 10.2902 11.2321L4.57787 12.7628C3.73391 12.9889 3.23314 13.8564 3.45927 14.7003L4.98983 20.4127C5.09836 20.8181 5.36351 21.1636 5.72695 21.3733C5.96953 21.5134 6.24269 21.5853 6.51797 21.5853C6.65497 21.5853 6.79271 21.5675 6.9274 21.5314L12.0068 20.1705L14.7809 21.7721L11.7438 22.8929C10.9241 23.1954 10.5048 24.1052 10.8074 24.9248C11.0432 25.5639 11.6482 25.9597 12.2917 25.9595C12.4737 25.9595 12.6587 25.9279 12.8392 25.8612L18.3447 23.8296L20.7113 25.196V28.8039L18.3447 30.1703L12.8392 28.1386C12.0196 27.836 11.1099 28.2554 10.8074 29.0751C10.5049 29.8947 10.9241 30.8045 11.7438 31.107L14.7809 32.2278L12.0068 33.8294L6.9274 32.4684C6.52197 32.3597 6.09029 32.4167 5.72695 32.6265C5.36361 32.8363 5.09846 33.1818 4.98983 33.5872L3.45927 39.2996C3.23314 40.1435 3.73391 41.011 4.57787 41.2371L10.2902 42.7678C10.4248 42.8039 10.5625 42.8217 10.6996 42.8217C10.975 42.8217 11.248 42.7498 11.4906 42.6097C11.8539 42.3999 12.1191 42.0544 12.2277 41.6491L13.5888 36.5696L16.3629 34.968L15.8149 38.1586C15.6671 39.0197 16.2452 39.8377 17.1064 39.9856C17.197 40.0011 17.2872 40.0087 17.3761 40.0087C18.1323 40.0087 18.8011 39.4647 18.9334 38.6943L19.9267 32.9105L22.2932 31.5442L25.418 33.3488V36.0811L20.9058 39.833C20.234 40.3917 20.1422 41.3891 20.7009 42.0609C21.2595 42.7328 22.257 42.8245 22.9288 42.2659L25.418 40.196V43.3993L21.6997 47.1176C21.0818 47.7355 21.0818 48.7371 21.6997 49.3549L25.8814 53.5367C26.1903 53.8456 26.5951 54 27 54C27.4048 54 27.8098 53.8455 28.1186 53.5366L32.3003 49.3548C32.597 49.0582 32.7638 48.6558 32.7638 48.2362C32.7638 47.8167 32.5971 47.4143 32.3003 47.1176L28.582 43.3992V40.196L31.0712 42.2659C31.3668 42.5116 31.7253 42.6315 32.0819 42.6315C32.5357 42.6315 32.9863 42.4372 33.2991 42.0609C33.8578 41.3891 33.766 40.3917 33.0943 39.833L28.582 36.081V33.3485L31.7067 31.5442L34.0734 32.9106L35.0667 38.6943C35.1989 39.4648 35.8677 40.0087 36.624 40.0087C36.7129 40.0087 36.8031 40.0012 36.8937 39.9856C37.7547 39.8378 38.3329 39.0197 38.1851 38.1586L37.6371 34.968L40.4112 36.5696L41.7723 41.6491C41.8809 42.0544 42.146 42.3999 42.5094 42.6097C42.7521 42.7498 43.0251 42.8217 43.3004 42.8217C43.4375 42.8217 43.5751 42.8039 43.7099 42.7678L49.4222 41.2371C50.2662 41.011 50.767 40.1435 50.5408 39.2996L49.0101 33.5872Z" fill="#B3C5E0"/>
<g opacity="0.3" clip-path="url(#clip1)">
<path d="M46.0101 33.5872C45.9014 33.1818 45.6363 32.8363 45.2729 32.6265C44.9094 32.4167 44.4776 32.3599 44.0724 32.4684L38.9931 33.8294L36.219 32.2278L39.2562 31.107C40.0758 30.8045 40.4951 29.8947 40.1926 29.0751C39.8901 28.2554 38.9807 27.8359 38.1607 28.1386L32.6553 30.1703L30.2887 28.8039V25.196L32.6553 23.8296L38.1607 25.8612C38.3413 25.9279 38.5263 25.9595 38.7081 25.9595C39.3518 25.9595 39.9568 25.5638 40.1925 24.9248C40.495 24.1052 40.0758 23.1954 39.256 22.8929L36.2189 21.7721L38.993 20.1705L44.0723 21.5314C44.207 21.5675 44.3447 21.5853 44.4818 21.5853C44.7571 21.5853 45.0303 21.5134 45.2728 21.3733C45.6362 21.1636 45.9013 20.8181 46.01 20.4127L47.5406 14.7003C47.7667 13.8564 47.266 12.9889 46.422 12.7628L40.7097 11.2321C40.3044 11.1235 39.8725 11.1804 39.5092 11.3902C39.1458 11.6 38.8807 11.9455 38.7721 12.3508L37.411 17.4303L34.6369 19.0319L35.1848 15.8413C35.3327 14.9801 34.7545 14.1622 33.8935 14.0143C33.0315 13.8662 32.2143 14.4447 32.0666 15.3057L31.0733 21.0894L28.7066 22.4558L25.582 20.6515V17.9191L30.0942 14.1671C30.7659 13.6084 30.8577 12.611 30.299 11.9392C29.7402 11.2672 28.743 11.1756 28.0711 11.7342L25.582 13.8041V10.6009L29.3004 6.88257C29.5971 6.58588 29.7639 6.18352 29.7639 5.76397C29.7639 5.34441 29.5972 4.94205 29.3004 4.64536L25.1186 0.463423C24.5009 -0.154413 23.4991 -0.154413 22.8813 0.463423L18.6996 4.64515C18.0817 5.26299 18.0817 6.26463 18.6996 6.88246L22.418 10.6008V13.8041L19.9287 11.7342C19.2569 11.1756 18.2594 11.2674 17.7008 11.9392C17.1422 12.611 17.2339 13.6084 17.9057 14.1671L22.418 17.919V20.6513L19.2932 22.4558L16.9267 21.0895L15.9334 15.3057C15.7855 14.4447 14.9681 13.8662 14.1064 14.0143C13.2452 14.1621 12.6672 14.9801 12.8149 15.8413L13.3629 19.0319L10.5888 17.4303L9.22773 12.3508C9.1192 11.9455 8.85405 11.6 8.49061 11.3902C8.12727 11.1804 7.69548 11.1236 7.29016 11.2321L1.57787 12.7628C0.733908 12.9889 0.233142 13.8564 0.459267 14.7003L1.98983 20.4127C2.09836 20.8181 2.36351 21.1636 2.72695 21.3733C2.96953 21.5134 3.24269 21.5853 3.51797 21.5853C3.65497 21.5853 3.79271 21.5675 3.9274 21.5314L9.00677 20.1705L11.7809 21.7721L8.74384 22.8929C7.92413 23.1954 7.50479 24.1052 7.80738 24.9248C8.04321 25.5639 8.64818 25.9597 9.29175 25.9595C9.47368 25.9595 9.65867 25.9279 9.83924 25.8612L15.3447 23.8296L17.7113 25.196V28.8039L15.3447 30.1703L9.83924 28.1386C9.01964 27.836 8.10986 28.2554 7.80738 29.0751C7.5049 29.8947 7.92413 30.8045 8.74384 31.107L11.7809 32.2278L9.00677 33.8294L3.9274 32.4684C3.52197 32.3597 3.09029 32.4167 2.72695 32.6265C2.36361 32.8363 2.09846 33.1818 1.98983 33.5872L0.459267 39.2996C0.233142 40.1435 0.733908 41.011 1.57787 41.2371L7.29016 42.7678C7.42485 42.8039 7.56248 42.8217 7.69959 42.8217C7.97497 42.8217 8.24803 42.7498 8.49061 42.6097C8.85395 42.3999 9.11909 42.0544 9.22773 41.6491L10.5888 36.5696L13.3629 34.968L12.8149 38.1586C12.6671 39.0197 13.2452 39.8377 14.1064 39.9856C14.197 40.0011 14.2872 40.0087 14.3761 40.0087C15.1323 40.0087 15.8011 39.4647 15.9334 38.6943L16.9267 32.9105L19.2932 31.5442L22.418 33.3488V36.0811L17.9058 39.833C17.234 40.3917 17.1422 41.3891 17.7009 42.0609C18.2595 42.7328 19.257 42.8245 19.9288 42.2659L22.418 40.196V43.3993L18.6997 47.1176C18.0818 47.7355 18.0818 48.7371 18.6997 49.3549L22.8814 53.5367C23.1903 53.8456 23.5951 54 24 54C24.4048 54 24.8098 53.8455 25.1186 53.5366L29.3003 49.3548C29.597 49.0582 29.7638 48.6558 29.7638 48.2362C29.7638 47.8167 29.5971 47.4143 29.3003 47.1176L25.582 43.3992V40.196L28.0712 42.2659C28.3668 42.5116 28.7253 42.6315 29.0819 42.6315C29.5357 42.6315 29.9863 42.4372 30.2991 42.0609C30.8578 41.3891 30.766 40.3917 30.0943 39.833L25.582 36.081V33.3485L28.7067 31.5442L31.0734 32.9106L32.0667 38.6943C32.1989 39.4648 32.8677 40.0087 33.624 40.0087C33.7129 40.0087 33.8031 40.0012 33.8937 39.9856C34.7547 39.8378 35.3329 39.0197 35.1851 38.1586L34.6371 34.968L37.4112 36.5696L38.7723 41.6491C38.8809 42.0544 39.146 42.3999 39.5094 42.6097C39.7521 42.7498 40.0251 42.8217 40.3004 42.8217C40.4375 42.8217 40.5751 42.8039 40.7099 42.7678L46.4222 41.2371C47.2662 41.011 47.767 40.1435 47.5408 39.2996L46.0101 33.5872Z" fill="#B3C5E0"/>
</g>
</g>
<defs>
<clipPath id="clip0">
<rect width="54" height="54" fill="white"/>
</clipPath>
<clipPath id="clip1">
<rect width="54" height="54" fill="white" transform="translate(-3)"/>
</clipPath>
</defs>
</svg>
