<svg width="59" height="59" viewBox="0 0 59 59" fill="none" xmlns="http://www.w3.org/2000/svg">
<path d="M41.8121 16.7873C41.1859 13.9375 38.6143 11.8691 35.6965 11.8691H0C0.789085 15.3122 3.87746 17.8883 7.5564 17.8883H23.2634V21.3526H3.39221C4.18085 24.7956 7.26967 27.3718 10.9482 27.3718H27.0045V30.836H7.13328C7.92236 34.2786 11.0107 36.8552 14.6897 36.8552H46.218L41.8121 16.7873Z" fill="#E84A5F"/>
<path d="M54.3222 25.822C53.9004 23.9017 52.8246 22.166 51.2928 20.934C49.761 19.7019 47.8349 19.0231 45.8691 19.0231H45.8493L50.5253 40.3194H18.2408C19.5574 44.2703 23.2886 47.1268 27.6761 47.1268H59L54.3222 25.822Z" fill="#E84A5F"/>
</svg>
