<svg width="59" height="59" viewBox="0 0 59 59" fill="none" xmlns="http://www.w3.org/2000/svg">
<g clip-path="url(#clip0)">
<path d="M17.1879 16.7873C17.8141 13.9375 20.3857 11.8691 23.3035 11.8691H59C58.2109 15.3122 55.1225 17.8883 51.4436 17.8883H35.7366V21.3526H55.6078C54.8192 24.7956 51.7303 27.3718 48.0518 27.3718H31.9955V30.836H51.8667C51.0776 34.2786 47.9893 36.8552 44.3103 36.8552H12.782L17.1879 16.7873Z" fill="#E84A5F"/>
<path d="M4.67779 25.822C5.09956 23.9017 6.17538 22.166 7.70719 20.934C9.239 19.7019 11.1651 19.0231 13.1309 19.0231H13.1507L8.47467 40.3194H40.7592C39.4426 44.2703 35.7114 47.1268 31.3239 47.1268H-7.62939e-06L4.67779 25.822Z" fill="#E84A5F"/>
</g>
<defs>
<clipPath id="clip0">
<rect width="59" height="59" fill="white" transform="matrix(-1 0 0 1 59 0)"/>
</clipPath>
</defs>
</svg>
